# xmcd CD database file
#
# Track frame offsets:
#	150
#	27600
#	52050
#	79500
#	118575
#	140250
#	169425
#	191475
#	216750
#	239025
#	270675
#
# Disc length: 3943 seconds
#
# Revision: 0
# Processed by: cddbd v1.5PL3 Copyright (c) Steve Scherf et al.
# Submitted via: CDex 1.51
#
DISCID=a50f650b
DTITLE=Bronek Harasiuk and Bogdan Holownia Trio - As Time Goes By
DYEAR=1900
DGENRE=Blues
TTITLE0=Midnight Sun
TTITLE1=As Time Goes By
TTITLE2=Secret Love
TTITLE3=Smile and I'm Old Fashioned
TTITLE4=Georgia
TTITLE5='round Midnight
TTITLE6=Blue Skies
TTITLE7=Skylark
TTITLE8=Billie's Bounve
TTITLE9=Sophisticated Lady
TTITLE10=Harvard Square
EXTD=
EXTT0=
EXTT1=
EXTT2=
EXTT3=
EXTT4=
EXTT5=
EXTT6=
EXTT7=
EXTT8=
EXTT9=
EXTT10=
PLAYORDER=
